<svg width="25" height="24" viewBox="0 0 25 24" fill="none" xmlns="http://www.w3.org/2000/svg">
<path d="M20.0469 14.2959L13.2969 21.0459C13.1924 21.1508 13.0682 21.234 12.9314 21.2908C12.7947 21.3476 12.6481 21.3768 12.5 21.3768C12.3519 21.3768 12.2053 21.3476 12.0686 21.2908C11.9318 21.234 11.8076 21.1508 11.7031 21.0459L4.95312 14.2959C4.74178 14.0846 4.62305 13.7979 4.62305 13.4991C4.62305 13.2002 4.74178 12.9135 4.95312 12.7022C5.16447 12.4908 5.45111 12.3721 5.75 12.3721C6.04888 12.3721 6.33553 12.4908 6.54687 12.7022L11.3759 17.5312V3.75C11.3759 3.45163 11.4945 3.16548 11.7054 2.9545C11.9164 2.74353 12.2026 2.625 12.5009 2.625C12.7993 2.625 13.0855 2.74353 13.2964 2.9545C13.5074 3.16548 13.6259 3.45163 13.6259 3.75V17.5312L18.455 12.7013C18.6663 12.4899 18.953 12.3712 19.2519 12.3712C19.5508 12.3712 19.8374 12.4899 20.0487 12.7013C20.2601 12.9126 20.3788 13.1992 20.3788 13.4981C20.3788 13.797 20.2601 14.0837 20.0487 14.295L20.0469 14.2959Z" fill="white"/>
</svg>
